<?xml version="1.0" encoding="iso-8859-1"?>
<!-- Generator: Adobe Illustrator 19.0.0, SVG Export Plug-In . SVG Version: 6.00 Build 0)  -->
<svg version="1.1" id="Capa_1" xmlns="http://www.w3.org/2000/svg" xmlns:xlink="http://www.w3.org/1999/xlink" x="0px" y="0px"
	 viewBox="0 0 512 512" style="enable-background:new 0 0 512 512;" xml:space="preserve">
<g>
	<path style="fill:#F0C419;" d="M34.133,247.467h102.4c9.426,0,17.067,7.641,17.067,17.067v238.933H17.067V264.533
		C17.067,255.108,24.708,247.467,34.133,247.467z"/>
	<path style="fill:#FFFFFF;" d="M102.4,324.267c-2.264,0.003-4.435-0.897-6.033-2.5l-11.034-11.033L74.3,321.766
		c-3.341,3.281-8.701,3.256-12.012-0.054c-3.311-3.311-3.335-8.671-0.054-12.012L79.3,292.634c1.6-1.601,3.77-2.5,6.033-2.5
		c2.263,0,4.433,0.899,6.033,2.5l17.067,17.067c2.44,2.441,3.169,6.11,1.849,9.299C108.962,322.187,105.851,324.266,102.4,324.267z"
		/>
	<path style="fill:#DF4D60;" d="M204.8,153.6h102.4c9.426,0,17.067,7.641,17.067,17.067v332.8H187.733v-332.8
		C187.733,161.241,195.374,153.6,204.8,153.6z"/>
	<path style="fill:#2FA8CC;" d="M375.467,315.733h102.4c9.426,0,17.067,7.641,17.067,17.067v170.667H358.4V332.8
		C358.4,323.374,366.041,315.733,375.467,315.733z"/>
	<g>
		<path style="fill:#802F34;" d="M256,114.133c-12.566-1.088-24.161-7.2-32.162-16.95c-1.975-2.341-2.544-5.562-1.489-8.438
			c1.055-2.876,3.571-4.966,6.592-5.474c3.021-0.509,6.082,0.641,8.021,3.013c4.784,5.837,11.572,9.681,19.038,10.783
			c7.776,0.136,14.717-4.853,17.067-12.267c0-8.967-3.45-10.346-18.213-12.346c-12.337-1.671-32.987-4.467-32.987-29.254
			c0-17.288,17.987-29.333,34.133-29.333c13.808-0.646,26.768,6.669,33.35,18.825c1.963,4.258,0.124,9.302-4.119,11.296
			s-9.3,0.194-11.327-4.034c-3.784-6.149-10.711-9.639-17.904-9.021c-7.521,0-17.067,5.775-17.067,12.267
			c0,8.967,3.45,10.346,18.213,12.346c12.337,1.671,32.987,4.467,32.987,29.254C287.924,101.864,273.202,114.515,256,114.133z"/>
		<path style="fill:#802F34;" d="M256,128c-4.713,0-8.533-3.821-8.533-8.533V105.6c0-4.713,3.821-8.533,8.533-8.533
			c4.713,0,8.533,3.821,8.533,8.533v13.867C264.533,124.179,260.713,128,256,128z"/>
		<path style="fill:#802F34;" d="M256,30.933c-4.713,0-8.533-3.821-8.533-8.533V8.533C247.467,3.821,251.287,0,256,0
			c4.713,0,8.533,3.821,8.533,8.533V22.4C264.533,27.113,260.713,30.933,256,30.933z"/>
	</g>
	<g>
		<path style="fill:#285680;" d="M435.362,290.133c-27.146,0-49.229-26.796-49.229-59.733s22.083-59.733,49.229-59.733
			c9.144,0.057,18.032,3.029,25.371,8.483c3.811,2.773,4.652,8.11,1.879,11.921c-2.773,3.811-8.11,4.652-11.921,1.879
			c-4.414-3.346-9.791-5.176-15.329-5.217c-17.733,0-32.162,19.142-32.162,42.667s14.429,42.667,32.162,42.667
			c7.366-0.181,14.35-3.318,19.379-8.704c3.318-3.346,8.721-3.369,12.067-0.05c3.346,3.318,3.369,8.721,0.05,12.067
			C458.631,285.004,447.281,289.961,435.362,290.133z"/>
		<path style="fill:#285680;" d="M426.667,221.867H384c-4.713,0-8.533-3.821-8.533-8.533s3.821-8.533,8.533-8.533h42.667
			c4.713,0,8.533,3.82,8.533,8.533S431.38,221.867,426.667,221.867z"/>
		<path style="fill:#285680;" d="M426.667,256H384c-4.713,0-8.533-3.82-8.533-8.533c0-4.713,3.821-8.533,8.533-8.533h42.667
			c4.713,0,8.533,3.821,8.533,8.533C435.2,252.18,431.38,256,426.667,256z"/>
	</g>
	<g>
		<path style="fill:#E57E25;" d="M110.933,221.867c-2.263,0.001-4.434-0.899-6.033-2.5c-5.6-4.268-12.536-6.406-19.567-6.033
			c-10.513,0.529-20.819,3.124-30.329,7.637c-3.743,1.861-8.283,0.736-10.725-2.657c-2.442-3.393-2.066-8.055,0.887-11.013
			c9.037-10.103,14.199-23.083,14.566-36.634c-1.313-2.034-2.783-3.962-4.396-5.767c-7.569-7.575-12.081-17.674-12.671-28.367
			c0.906-18.602,15.885-33.424,34.496-34.133c18.397,0.916,33.051,15.727,33.771,34.133c0,4.713-3.821,8.533-8.533,8.533
			c-4.713,0-8.533-3.821-8.533-8.533c0-3.975-5.208-17.067-16.704-17.067c-9.173,0.724-16.513,7.911-17.429,17.067
			c0.758,6.677,3.856,12.87,8.746,17.479c4.658,4.391,7.606,10.293,8.321,16.654c-0.037,9.322-1.961,18.541-5.654,27.1
			c4.669-0.963,9.421-1.465,14.188-1.5c5.797-0.039,11.561,0.867,17.067,2.683v-2.683c0-4.713,3.821-8.533,8.533-8.533
			c4.713,0,8.533,3.821,8.533,8.533v17.067C119.467,218.046,115.646,221.867,110.933,221.867z"/>
		<path style="fill:#E57E25;" d="M85.333,179.2H51.2c-4.713,0-8.533-3.821-8.533-8.533c0-4.713,3.821-8.533,8.533-8.533h34.133
			c4.713,0,8.533,3.821,8.533,8.533C93.867,175.38,90.046,179.2,85.333,179.2z"/>
	</g>
	<g>
		<path style="fill:#FFFFFF;" d="M85.333,366.933c-4.713,0-8.533-3.82-8.533-8.533v-59.733c0-4.713,3.821-8.533,8.533-8.533
			s8.533,3.82,8.533,8.533V358.4C93.867,363.113,90.046,366.933,85.333,366.933z"/>
		<path style="fill:#FFFFFF;" d="M443.733,392.533c-2.264,0.003-4.435-0.897-6.033-2.5L426.667,379l-11.034,11.034
			c-3.338,3.296-8.711,3.279-12.029-0.038c-3.317-3.317-3.334-8.691-0.038-12.029l17.067-17.067c1.6-1.601,3.77-2.5,6.033-2.5
			c2.263,0,4.433,0.899,6.033,2.5l17.067,17.067c2.44,2.441,3.17,6.11,1.849,9.299C450.295,390.454,447.184,392.533,443.733,392.533
			z"/>
		<path style="fill:#FFFFFF;" d="M426.667,435.2c-4.713,0-8.533-3.82-8.533-8.533v-59.733c0-4.713,3.82-8.533,8.533-8.533
			s8.533,3.82,8.533,8.533v59.733C435.2,431.38,431.38,435.2,426.667,435.2z"/>
		<path style="fill:#FFFFFF;" d="M273.067,230.4c-2.264,0.003-4.435-0.897-6.033-2.5L256,216.867L244.966,227.9
			c-3.338,3.296-8.711,3.279-12.029-0.038c-3.317-3.317-3.334-8.691-0.038-12.029l17.067-17.067c1.6-1.601,3.77-2.5,6.033-2.5
			c2.263,0,4.433,0.899,6.033,2.5l17.067,17.067c2.44,2.441,3.169,6.11,1.849,9.299C279.629,228.32,276.518,230.399,273.067,230.4z"
			/>
		<path style="fill:#FFFFFF;" d="M256,273.067c-4.713,0-8.533-3.82-8.533-8.533V204.8c0-4.713,3.821-8.533,8.533-8.533
			c4.713,0,8.533,3.821,8.533,8.533v59.733C264.533,269.246,260.713,273.067,256,273.067z"/>
	</g>
	<path style="fill:#35495E;" d="M503.467,512H8.533C3.821,512,0,508.18,0,503.467c0-4.713,3.821-8.533,8.533-8.533h494.933
		c4.713,0,8.533,3.821,8.533,8.533C512,508.18,508.18,512,503.467,512z"/>
</g>
<g>
</g>
<g>
</g>
<g>
</g>
<g>
</g>
<g>
</g>
<g>
</g>
<g>
</g>
<g>
</g>
<g>
</g>
<g>
</g>
<g>
</g>
<g>
</g>
<g>
</g>
<g>
</g>
<g>
</g>
</svg>
